<svg xmlns="http://www.w3.org/2000/svg" width="375" height="375"><path style="opacity:1;fill:#000;fill-opacity:1;stroke:none;stroke-width:0;stroke-miterlimit:4;stroke-dasharray:none;stroke-opacity:1" d="M173.425 31.592h150.714v78.454H173.425z" transform="translate(1.004 4.022)"/><path style="opacity:1;fill:#000;fill-opacity:1;stroke:none;stroke-width:0;stroke-miterlimit:4;stroke-dasharray:none;stroke-opacity:1" d="M185.124 23.592H312.44v78.454H185.124z" transform="translate(1.004 4.022)"/><path style="opacity:1;fill:#000;fill-opacity:1;stroke:none;stroke-width:0;stroke-miterlimit:4;stroke-dasharray:none;stroke-opacity:1" d="M173.425 66.69h64.69v78.454h-64.69z" transform="translate(1.004 4.022)"/><path style="opacity:1;fill:#000;fill-opacity:1;stroke:none;stroke-width:0;stroke-miterlimit:4;stroke-dasharray:none;stroke-opacity:1" d="M173.425 129.315h112.864v15.828H173.425z" transform="translate(1.004 4.022)"/><path style="opacity:1;fill:#fff;fill-opacity:1;stroke:none;stroke-width:0;stroke-miterlimit:4;stroke-dasharray:none;stroke-opacity:1" d="M199.834 44.12h15v15h-15z" transform="translate(1.004 4.022)"/><path style="opacity:1;fill:#000;fill-opacity:1;stroke:none;stroke-width:0;stroke-miterlimit:4;stroke-dasharray:none;stroke-opacity:1" d="M173.425 66.69h50.926v158.972h-50.926z" transform="translate(1.004 4.022)"/><path style="opacity:1;fill:#000;fill-opacity:1;stroke:none;stroke-width:0;stroke-miterlimit:4;stroke-dasharray:none;stroke-opacity:1" d="M173.425 181.315h81.895v15.828h-81.895z" transform="translate(1.004 4.022)"/><path style="opacity:1;fill:#000;fill-opacity:1;stroke:none;stroke-width:0;stroke-miterlimit:4;stroke-dasharray:none;stroke-opacity:1" d="M242.932 181.618h12.387v28.904h-12.387zM161.425 154.09h50.926v100.476h-50.926z" transform="translate(1.004 4.022)"/><path style="opacity:1;fill:#000;fill-opacity:1;stroke:none;stroke-width:0;stroke-miterlimit:4;stroke-dasharray:none;stroke-opacity:1" d="M137.425 168.09h59.873v100.476h-59.873z" transform="translate(1.004 4.022)"/><path style="opacity:1;fill:#000;fill-opacity:1;stroke:none;stroke-width:0;stroke-miterlimit:4;stroke-dasharray:none;stroke-opacity:1" d="M117.425 182.09h50.926v100.476h-50.926z" transform="translate(1.004 4.022)"/><path style="opacity:1;fill:#000;fill-opacity:1;stroke:none;stroke-width:0;stroke-miterlimit:4;stroke-dasharray:none;stroke-opacity:1" d="M120.783 196.09h27.568v100.476h-27.568zM161.425 196.09h18.581v100.476h-18.581z" transform="translate(1.004 4.022)"/><path style="opacity:1;fill:#000;fill-opacity:1;stroke:none;stroke-width:0;stroke-miterlimit:4;stroke-dasharray:none;stroke-opacity:1" d="M169.683 196.09h10.323v147.273h-10.323z" transform="translate(1.004 4.022)"/><path style="opacity:1;fill:#000;fill-opacity:1;stroke:none;stroke-width:0;stroke-miterlimit:4;stroke-dasharray:none;stroke-opacity:1" d="M169.683 333.041h28.216v10.323h-28.216zM117.683 196.09h10.323v119.745h-10.323z" transform="translate(1.004 4.022)"/><path style="opacity:1;fill:#000;fill-opacity:1;stroke:none;stroke-width:0;stroke-miterlimit:4;stroke-dasharray:none;stroke-opacity:1" d="M117.683 305.513h28.216v10.323h-28.216zM100.783 196.09h27.568v87.824h-27.568z" transform="translate(1.004 4.022)"/><path style="opacity:1;fill:#000;fill-opacity:1;stroke:none;stroke-width:0;stroke-miterlimit:4;stroke-dasharray:none;stroke-opacity:1" d="M84.676 196.09h23.675v74.198H84.676z" transform="translate(1.004 4.022)"/><path style="opacity:1;fill:#000;fill-opacity:1;stroke:none;stroke-width:0;stroke-miterlimit:4;stroke-dasharray:none;stroke-opacity:1" d="M72.671 182.068h19.68v72.221h-19.68z" transform="translate(1.004 4.022)"/><path style="opacity:1;fill:#000;fill-opacity:1;stroke:none;stroke-width:0;stroke-miterlimit:4;stroke-dasharray:none;stroke-opacity:1" d="M58.671 168.068h19.68v72.221h-19.68z" transform="translate(1.004 4.022)"/><path style="opacity:1;fill:#000;fill-opacity:1;stroke:none;stroke-width:0;stroke-miterlimit:4;stroke-dasharray:none;stroke-opacity:1" d="M48.853 154.068H60.35v72.221H48.853z" transform="translate(1.004 4.022)"/></svg>
